<svg width="45" height="24" viewBox="0 0 45 24" fill="none" xmlns="http://www.w3.org/2000/svg">
<path d="M45 4C45 6.2 43.1591 8 40.9091 8C40.5409 8 40.1932 7.96 39.8659 7.86L32.5841 14.96C32.6864 15.28 32.7273 15.64 32.7273 16C32.7273 18.2 30.8864 20 28.6364 20C26.3864 20 24.5455 18.2 24.5455 16C24.5455 15.64 24.5864 15.28 24.6886 14.96L19.4727 9.86C19.1455 9.96 18.7773 10 18.4091 10C18.0409 10 17.6727 9.96 17.3455 9.86L8.03864 18.98C8.14091 19.3 8.18182 19.64 8.18182 20C8.18182 22.2 6.34091 24 4.09091 24C1.84091 24 0 22.2 0 20C0 17.8 1.84091 16 4.09091 16C4.45909 16 4.80682 16.04 5.13409 16.14L14.4614 7.04C14.3591 6.72 14.3182 6.36 14.3182 6C14.3182 3.8 16.1591 2 18.4091 2C20.6591 2 22.5 3.8 22.5 6C22.5 6.36 22.4591 6.72 22.3568 7.04L27.5727 12.14C27.9 12.04 28.2682 12 28.6364 12C29.0045 12 29.3727 12.04 29.7 12.14L36.9614 5.02C36.8591 4.7 36.8182 4.36 36.8182 4C36.8182 1.8 38.6591 0 40.9091 0C43.1591 0 45 1.8 45 4Z" fill="white"/>
</svg>
