<svg width="26" height="26" viewBox="0 0 26 26" fill="none" xmlns="http://www.w3.org/2000/svg">
<path d="M13 3.0875C14.885 3.0875 16.4125 4.615 16.4125 6.5C16.4125 8.385 14.885 9.9125 13 9.9125C11.115 9.9125 9.5875 8.385 9.5875 6.5C9.5875 4.615 11.115 3.0875 13 3.0875ZM13 17.7125C17.8344 17.7125 22.9125 20.0769 22.9125 21.125V22.9125H3.0875V21.125C3.0875 20.0769 8.16563 17.7125 13 17.7125ZM13 0C9.40875 0 6.5 2.90875 6.5 6.5C6.5 10.0831 9.40875 13 13 13C16.5912 13 19.5 10.0831 19.5 6.5C19.5 2.90875 16.5912 0 13 0ZM13 14.625C8.66938 14.625 0 16.7944 0 21.125V26H26V21.125C26 16.7944 17.3306 14.625 13 14.625Z" fill="white"/>
</svg>
