<svg width="31" height="21" viewBox="0 0 31 21" fill="none" xmlns="http://www.w3.org/2000/svg">
<path d="M15.5 0C8.45455 0 2.43773 4.354 0 10.5C2.43773 16.646 8.45455 21 15.5 21C22.5455 21 28.5623 16.646 31 10.5C28.5623 4.354 22.5525 0 15.5 0ZM15.5 17.5C11.6109 17.5 8.45455 14.364 8.45455 10.5C8.45455 6.636 11.6109 3.5 15.5 3.5C19.3891 3.5 22.5455 6.636 22.5455 10.5C22.5455 14.364 19.3891 17.5 15.5 17.5ZM15.5 6.3C13.168 6.3 11.2727 8.183 11.2727 10.5C11.2727 12.817 13.168 14.7 15.5 14.7C17.832 14.7 19.7273 12.817 19.7273 10.5C19.7273 8.183 17.832 6.3 15.5 6.3Z" fill="white"/>
</svg>
